<?xml version="1.0" encoding="utf-8"?>
<!-- Generated by IcoMoon.io -->
<!DOCTYPE svg PUBLIC "-//W3C//DTD SVG 1.1//EN" "http://www.w3.org/Graphics/SVG/1.1/DTD/svg11.dtd">
<svg version="1.1" xmlns="http://www.w3.org/2000/svg" xmlns:xlink="http://www.w3.org/1999/xlink" width="24" height="24" viewBox="0 0 24 24">
<path fill="#000" d="M1.714 6.857v11.143h1.714v0.857h1.714v-0.857h3.429v0.857h1.714v-0.857h1.714v-13.714h-10.286v2.571zM3.429 6h6.857v0.857h-6.857v-0.857zM3.429 8.571h6.857v2.571h-6.857v-2.571zM3.429 12.857h6.857v3.429h-6.857v-3.429z"></path>
<path fill="#000" d="M4.286 13.714h1.714v1.714h-1.714v-1.714z"></path>
<path fill="#000" d="M7.714 13.714h1.714v1.714h-1.714v-1.714z"></path>
<path fill="#000" d="M21.729 12.814l0.609-0.609-3.317-3.317 2.631-2.631-1.209-1.209-2.631 2.631-3.446-3.446-0.609 0.609c-1.611 1.611-1.714 5.126 0.566 7.406 0.471 0.471 1.020 0.849 1.611 1.14l-1.937 5.469h1.817l0.977-2.76 0.986 2.76h1.817l-1.74-4.911c0.231 0.026 0.471 0.043 0.703 0.043 1.269 0.009 2.426-0.429 3.171-1.174zM15.54 11.031c-1.234-1.234-1.5-3.051-1.037-4.234l5.271 5.271c-0.36 0.137-0.771 0.214-1.226 0.214-1.123 0-2.22-0.463-3.009-1.251z"></path>
</svg>
