<?xml version="1.0" encoding="utf-8"?>
<!-- Generated by IcoMoon.io -->
<!DOCTYPE svg PUBLIC "-//W3C//DTD SVG 1.1//EN" "http://www.w3.org/Graphics/SVG/1.1/DTD/svg11.dtd">
<svg version="1.1" xmlns="http://www.w3.org/2000/svg" xmlns:xlink="http://www.w3.org/1999/xlink" width="24" height="24" viewBox="0 0 24 24">
<path fill="#000" d="M8.571 15.429h1.714v6.857h-1.714v-6.857z"></path>
<path fill="#000" d="M5.143 15.429h1.714v6.857h-1.714v-6.857z"></path>
<path fill="#000" d="M3.429 6.857v7.714h1.714v-6h5.143v6h1.714v-7.714h-4.071z"></path>
<path fill="#000" d="M10.5 4.286c0-1.414-1.157-2.571-2.571-2.571s-2.571 1.157-2.571 2.571 1.157 2.571 2.571 2.571 2.571-1.157 2.571-2.571zM7.929 5.143c-0.471 0-0.857-0.386-0.857-0.857s0.386-0.857 0.857-0.857 0.857 0.386 0.857 0.857-0.386 0.857-0.857 0.857z"></path>
<path fill="#000" d="M18 17.143h1.714v5.143h-1.714v-5.143z"></path>
<path fill="#000" d="M14.571 17.143h1.714v5.143h-1.714v-5.143z"></path>
<path fill="#000" d="M21.926 16.286l-4.294-9.454c1.286-0.137 2.297-1.217 2.297-2.546 0-1.414-1.157-2.571-2.571-2.571s-2.571 1.157-2.571 2.571c0 1.329 1.011 2.409 2.306 2.546l-4.303 9.454h9.137zM15.446 14.571l1.911-4.2 1.911 4.2h-3.823zM16.5 4.286c0-0.471 0.386-0.857 0.857-0.857s0.857 0.386 0.857 0.857-0.386 0.857-0.857 0.857-0.857-0.386-0.857-0.857z"></path>
</svg>
