<?xml version="1.0" encoding="utf-8"?>
<!-- Generated by IcoMoon.io -->
<!DOCTYPE svg PUBLIC "-//W3C//DTD SVG 1.1//EN" "http://www.w3.org/Graphics/SVG/1.1/DTD/svg11.dtd">
<svg version="1.1" xmlns="http://www.w3.org/2000/svg" xmlns:xlink="http://www.w3.org/1999/xlink" width="24" height="24" viewBox="0 0 24 24">
<path fill="#000" d="M12 2.066c-3.42 0-9.429 0.66-9.429 3.129v13.611c0 2.469 6.009 3.129 9.429 3.129s9.429-0.66 9.429-3.129v-13.611c0-2.469-6.009-3.129-9.429-3.129zM12 3.78c4.543 0 7.020 0.943 7.457 1.414-0.446 0.471-2.914 1.414-7.457 1.414s-7.011-0.943-7.457-1.414c0.437-0.471 2.914-1.414 7.457-1.414zM4.286 7.131c2.571 0.9 5.357 1.191 7.611 1.191s5.58-0.291 7.551-1.191l0.026 2.537c-0.266 0.446-2.837 1.474-7.594 1.474-4.8 0-7.594-1.054-7.594-1.414v-2.597zM4.286 11.674c2.571 0.9 5.357 1.191 7.611 1.191s5.58-0.291 7.56-1.191l0.026 2.589c-0.249 0.437-2.82 1.483-7.603 1.483-4.8 0-7.594-1.054-7.594-1.414v-2.657zM11.897 20.22c-4.8 0-7.611-1.054-7.611-1.414v-2.537c2.571 0.9 5.357 1.191 7.611 1.191s5.589-0.291 7.569-1.191l-0.026 2.469c-0.231 0.429-2.743 1.483-7.543 1.483z"></path>
</svg>
