<?xml version="1.0" encoding="utf-8"?>
<!-- Generated by IcoMoon.io -->
<!DOCTYPE svg PUBLIC "-//W3C//DTD SVG 1.1//EN" "http://www.w3.org/Graphics/SVG/1.1/DTD/svg11.dtd">
<svg version="1.1" xmlns="http://www.w3.org/2000/svg" xmlns:xlink="http://www.w3.org/1999/xlink" width="24" height="24" viewBox="0 0 24 24">
<path fill="#000" d="M11.143 4.749v6.394h1.714v-6.394l2.717 2.717 1.209-1.217-4.783-4.783-4.783 4.783 1.209 1.217z"></path>
<path fill="#000" d="M5.143 15.429h-1.714v3.429h1.714v3.429h1.714v-3.429h1.714v-3.429h-1.714z"></path>
<path fill="#000" d="M5.143 12.857h1.714v1.714h-1.714v-1.714z"></path>
<path fill="#000" d="M11.143 15.429h-1.714v3.429h1.714v3.429h1.714v-3.429h1.714v-3.429h-1.714z"></path>
<path fill="#000" d="M11.143 12.857h1.714v1.714h-1.714v-1.714z"></path>
<path fill="#000" d="M18.857 15.429h-3.429v3.429h1.714v3.429h1.714v-3.429h1.714v-3.429z"></path>
<path fill="#000" d="M17.143 12.857h1.714v1.714h-1.714v-1.714z"></path>
</svg>
