<?xml version="1.0" encoding="utf-8"?>
<!-- Generated by IcoMoon.io -->
<!DOCTYPE svg PUBLIC "-//W3C//DTD SVG 1.1//EN" "http://www.w3.org/Graphics/SVG/1.1/DTD/svg11.dtd">
<svg version="1.1" xmlns="http://www.w3.org/2000/svg" xmlns:xlink="http://www.w3.org/1999/xlink" width="24" height="24" viewBox="0 0 24 24">
<path fill="#000" d="M11 18h2v-5h5v-2h-5v-5h-2v5h-5v2h5z"></path>
<path fill="#000" d="M18 0v2h4v4h2v-6z"></path>
<path fill="#000" d="M22 9h2v6h-2v-6z"></path>
<path fill="#000" d="M22 22h-4v2h6v-6h-2z"></path>
<path fill="#000" d="M9 22h6v2h-6v-2z"></path>
<path fill="#000" d="M2 18h-2v6h6v-2h-4z"></path>
<path fill="#000" d="M0 9h2v6h-2v-6z"></path>
<path fill="#000" d="M2 2h4v-2h-6v6h2z"></path>
<path fill="#000" d="M9 0h6v2h-6v-2z"></path>
</svg>
