<?xml version="1.0" encoding="utf-8"?>
<!-- Generated by IcoMoon.io -->
<!DOCTYPE svg PUBLIC "-//W3C//DTD SVG 1.1//EN" "http://www.w3.org/Graphics/SVG/1.1/DTD/svg11.dtd">
<svg version="1.1" xmlns="http://www.w3.org/2000/svg" xmlns:xlink="http://www.w3.org/1999/xlink" width="24" height="24" viewBox="0 0 24 24">
<path fill="#000" d="M12 8.571c-1.894 0-3.429-1.534-3.429-3.429s1.534-3.429 3.429-3.429c1.894 0 3.429 1.534 3.429 3.429s-1.534 3.429-3.429 3.429zM12 3.429c-0.943 0-1.714 0.771-1.714 1.714s0.771 1.714 1.714 1.714c0.943 0 1.714-0.771 1.714-1.714s-0.771-1.714-1.714-1.714z"></path>
<path fill="#000" d="M18.54 13.406c-1.5 0-2.811-0.96-3.266-2.391-0.574-1.8 0.429-3.737 2.229-4.311 0.343-0.111 0.686-0.163 1.046-0.163 1.5 0 2.811 0.96 3.266 2.391 0.574 1.8-0.429 3.737-2.229 4.311-0.343 0.111-0.694 0.163-1.046 0.163zM18.54 8.263c-0.18 0-0.351 0.026-0.523 0.086-0.9 0.283-1.397 1.251-1.114 2.151 0.283 0.883 1.26 1.397 2.151 1.114 0.9-0.291 1.397-1.251 1.114-2.151-0.223-0.72-0.874-1.2-1.629-1.2z"></path>
<path fill="#000" d="M15.926 21.103c-1.106 0-2.151-0.54-2.794-1.44-0.531-0.746-0.737-1.654-0.583-2.554s0.651-1.689 1.397-2.22c0.583-0.411 1.269-0.634 1.98-0.634 1.106 0 2.151 0.54 2.794 1.44 0.531 0.746 0.737 1.654 0.583 2.554s-0.651 1.689-1.397 2.22c-0.583 0.42-1.269 0.634-1.98 0.634zM15.926 15.96c-0.36 0-0.703 0.111-0.994 0.317-0.377 0.266-0.617 0.66-0.694 1.114s0.026 0.909 0.291 1.277c0.523 0.746 1.646 0.934 2.391 0.403 0.377-0.266 0.617-0.66 0.694-1.114s-0.026-0.909-0.291-1.277c-0.317-0.446-0.849-0.72-1.397-0.72z"></path>
<path fill="#000" d="M7.791 20.949c-0.746 0-1.457-0.24-2.057-0.686-1.509-1.14-1.817-3.291-0.677-4.8 0.651-0.866 1.654-1.371 2.743-1.371 0.746 0 1.457 0.24 2.057 0.686 1.509 1.14 1.817 3.291 0.677 4.8-0.651 0.874-1.654 1.371-2.743 1.371zM7.791 15.806c-0.549 0-1.046 0.249-1.371 0.686-0.566 0.754-0.411 1.834 0.343 2.4 0.737 0.557 1.851 0.394 2.4-0.343 0.566-0.754 0.411-1.834-0.343-2.4-0.3-0.223-0.651-0.343-1.029-0.343z"></path>
<path fill="#000" d="M5.469 13.157c-0.386 0-0.763-0.069-1.131-0.189-1.783-0.626-2.726-2.58-2.109-4.371 0.48-1.371 1.783-2.297 3.24-2.297 0.386 0 0.763 0.069 1.131 0.189 1.783 0.626 2.726 2.58 2.109 4.371-0.48 1.371-1.783 2.297-3.24 2.297zM5.469 8.014c-0.729 0-1.38 0.463-1.62 1.149-0.309 0.891 0.163 1.869 1.054 2.186 0.883 0.309 1.877-0.18 2.186-1.054 0.309-0.891-0.163-1.869-1.054-2.186-0.18-0.060-0.377-0.094-0.566-0.094z"></path>
</svg>
