<?xml version="1.0" encoding="utf-8"?>
<!-- Generated by IcoMoon.io -->
<!DOCTYPE svg PUBLIC "-//W3C//DTD SVG 1.1//EN" "http://www.w3.org/Graphics/SVG/1.1/DTD/svg11.dtd">
<svg version="1.1" xmlns="http://www.w3.org/2000/svg" xmlns:xlink="http://www.w3.org/1999/xlink" width="24" height="24" viewBox="0 0 24 24">
<path fill="#000" d="M16.286 9.429c-2.477 0-5.143-0.806-5.143-2.571s2.666-2.571 5.143-2.571 5.143 0.806 5.143 2.571-2.666 2.571-5.143 2.571zM12.883 6.857c0.223 0.283 1.397 0.857 3.403 0.857s3.189-0.574 3.403-0.857c-0.214-0.283-1.389-0.857-3.403-0.857s-3.189 0.574-3.403 0.857z"></path>
<path fill="#000" d="M16.286 18c-2.031 0-4.191-0.54-4.903-1.714-0.154 0.257-0.24 0.54-0.24 0.857 0 1.766 2.666 2.571 5.143 2.571s5.143-0.806 5.143-2.571c0-0.317-0.086-0.6-0.24-0.857-0.711 1.174-2.871 1.714-4.903 1.714z"></path>
<path fill="#000" d="M16.286 15.429c-2.031 0-4.191-0.54-4.903-1.714-0.154 0.257-0.24 0.54-0.24 0.857 0 1.766 2.666 2.571 5.143 2.571s5.143-0.806 5.143-2.571c0-0.317-0.086-0.6-0.24-0.857-0.711 1.174-2.871 1.714-4.903 1.714z"></path>
<path fill="#000" d="M16.286 12.857c-2.031 0-4.191-0.54-4.903-1.714-0.154 0.257-0.24 0.54-0.24 0.857 0 1.766 2.666 2.571 5.143 2.571s5.143-0.806 5.143-2.571c0-0.317-0.086-0.6-0.24-0.857-0.711 1.174-2.871 1.714-4.903 1.714z"></path>
<path fill="#000" d="M16.286 10.286c-2.031 0-4.191-0.54-4.903-1.714-0.154 0.257-0.24 0.54-0.24 0.857 0 1.766 2.666 2.571 5.143 2.571s5.143-0.806 5.143-2.571c0-0.317-0.086-0.6-0.24-0.857-0.711 1.174-2.871 1.714-4.903 1.714z"></path>
<path fill="#000" d="M2.571 10.286c0 1.766 2.666 2.571 5.143 2.571 0.874 0 1.774-0.103 2.571-0.309v-1.8c-0.583 0.214-1.44 0.394-2.571 0.394-2.014 0-3.189-0.574-3.403-0.857 0.223-0.283 1.397-0.857 3.403-0.857 1.131 0 1.989 0.18 2.571 0.394v-1.8c-0.797-0.206-1.697-0.309-2.571-0.309-2.477 0-5.143 0.806-5.143 2.571z"></path>
<path fill="#000" d="M2.811 14.571c-0.154 0.257-0.24 0.54-0.24 0.857 0 1.766 2.666 2.571 5.143 2.571 0.874 0 1.774-0.103 2.571-0.309v-1.723c-0.797 0.206-1.697 0.317-2.571 0.317-2.031 0-4.191-0.54-4.903-1.714z"></path>
<path fill="#000" d="M2.811 12c-0.154 0.257-0.24 0.54-0.24 0.857 0 1.766 2.666 2.571 5.143 2.571 0.874 0 1.774-0.103 2.571-0.309v-1.723c-0.797 0.206-1.697 0.317-2.571 0.317-2.031 0-4.191-0.54-4.903-1.714z"></path>
</svg>
