<?xml version="1.0" encoding="utf-8"?>
<!-- Generated by IcoMoon.io -->
<!DOCTYPE svg PUBLIC "-//W3C//DTD SVG 1.1//EN" "http://www.w3.org/Graphics/SVG/1.1/DTD/svg11.dtd">
<svg version="1.1" xmlns="http://www.w3.org/2000/svg" xmlns:xlink="http://www.w3.org/1999/xlink" width="24" height="24" viewBox="0 0 24 24">
<path fill="#000" d="M12 3c-4.97 0-9 4.030-9 9s4.030 9 9 9 9-4.030 9-9c0-4.97-4.030-9-9-9zM12 5c1.57 0 3.020 0.53 4.18 1.4l-9.78 9.78c-0.87-1.16-1.4-2.61-1.4-4.18 0-3.86 3.14-7 7-7zM12 19c-1.57 0-3.020-0.53-4.18-1.4l9.78-9.78c0.87 1.16 1.4 2.61 1.4 4.18 0 3.86-3.14 7-7 7z"></path>
</svg>
