<?xml version="1.0" encoding="utf-8"?>
<!-- Generated by IcoMoon.io -->
<!DOCTYPE svg PUBLIC "-//W3C//DTD SVG 1.1//EN" "http://www.w3.org/Graphics/SVG/1.1/DTD/svg11.dtd">
<svg version="1.1" xmlns="http://www.w3.org/2000/svg" xmlns:xlink="http://www.w3.org/1999/xlink" width="24" height="24" viewBox="0 0 24 24">
<path fill="#000" d="M12.78 3l0.25 1.090 0.26 0.95 0.93 0.31c0.31 0.1 0.62 0.24 0.94 0.4l0.89 0.45 0.9-0.45 1.030-0.52 0.79 0.79-0.52 1.030-0.45 0.9 0.45 0.9c0.16 0.32 0.29 0.64 0.4 0.95l0.31 0.95 0.95 0.32 1.090 0.37v1.12l-1.090 0.36-0.95 0.32-0.31 0.95c-0.1 0.31-0.24 0.63-0.4 0.95l-0.45 0.9 0.45 0.9 0.52 1.030-0.79 0.79-1.030-0.52-0.9-0.45-0.9 0.45c-0.32 0.16-0.64 0.29-0.95 0.4l-0.95 0.31-0.32 0.95-0.37 1.1h-1.12l-0.36-1.090-0.32-0.95-0.95-0.31c-0.31-0.1-0.63-0.24-0.95-0.4l-0.9-0.45-0.9 0.45-1.030 0.52-0.79-0.79 0.52-1.030 0.45-0.9-0.45-0.9c-0.16-0.32-0.29-0.64-0.4-0.95l-0.31-0.95-2.050-0.69v-1.12l1.090-0.36 0.95-0.32 0.31-0.95c0.1-0.31 0.24-0.63 0.4-0.95l0.45-0.9-0.45-0.9-0.51-1.030 0.79-0.79 1.030 0.52 0.9 0.45 0.9-0.45c0.32-0.16 0.64-0.29 0.95-0.4l0.95-0.31 0.32-0.95 0.36-1.1h1.56zM14 1h-4l-0.82 2.46c-0.42 0.14-0.83 0.31-1.22 0.51l-2.32-1.16-2.83 2.83 1.16 2.32c-0.2 0.39-0.37 0.8-0.51 1.22l-2.46 0.82v4l2.46 0.82c0.14 0.42 0.31 0.83 0.51 1.22l-1.16 2.32 2.83 2.83 2.32-1.16c0.39 0.2 0.8 0.37 1.22 0.51l0.82 2.46h4l0.82-2.46c0.42-0.14 0.83-0.31 1.22-0.51l2.32 1.16 2.83-2.83-1.16-2.32c0.2-0.39 0.37-0.8 0.51-1.22l2.46-0.82v-4l-2.46-0.82c-0.14-0.42-0.31-0.83-0.51-1.22l1.16-2.32-2.83-2.83-2.32 1.16c-0.39-0.2-0.8-0.37-1.22-0.51l-0.82-2.46z"></path>
<path fill="#000" d="M12 10c1.1 0 2 0.9 2 2s-0.9 2-2 2-2-0.9-2-2 0.9-2 2-2zM12 8c-2.21 0-4 1.79-4 4s1.79 4 4 4 4-1.79 4-4-1.79-4-4-4v0z"></path>
</svg>
