<?xml version="1.0" encoding="utf-8"?>
<!-- Generated by IcoMoon.io -->
<!DOCTYPE svg PUBLIC "-//W3C//DTD SVG 1.1//EN" "http://www.w3.org/Graphics/SVG/1.1/DTD/svg11.dtd">
<svg version="1.1" xmlns="http://www.w3.org/2000/svg" xmlns:xlink="http://www.w3.org/1999/xlink" width="24" height="24" viewBox="0 0 24 24">
<path fill="#000" d="M5.23 15.94c-0.46-0.34-0.86-0.71-1.2-1.080s-0.64-0.74-0.89-1.090c-0.25-0.35-0.45-0.69-0.61-0.99s-0.28-0.57-0.37-0.78c0.060-0.15 0.14-0.33 0.24-0.52s0.21-0.42 0.35-0.65c0.14-0.23 0.3-0.48 0.48-0.73s0.39-0.51 0.62-0.78c0.49-0.55 1.020-1.030 1.61-1.45s1.22-0.76 1.9-1.040c0.68-0.28 1.41-0.49 2.18-0.63 0.78-0.13 1.6-0.2 2.46-0.2 0.27 0 0.52 0.010 0.77 0.020s0.5 0.030 0.73 0.060c0.24 0.030 0.47 0.060 0.7 0.1s0.45 0.080 0.66 0.13l1.64-1.64c-0.32-0.1-0.65-0.2-1-0.28s-0.71-0.15-1.080-0.21c-0.37-0.060-0.76-0.1-1.16-0.13-0.41-0.030-0.83-0.050-1.26-0.050-2.44 0-4.41 0.5-5.99 1.25s-2.77 1.75-3.65 2.75-1.46 2-1.82 2.75-0.49 1.25-0.49 1.25 0.050 0.19 0.18 0.51c0.12 0.32 0.32 0.77 0.61 1.3s0.66 1.12 1.15 1.74 1.090 1.24 1.82 1.82l1.080-1.080 0.34-0.35z"></path>
<path fill="#000" d="M20.18 6.64l2.32-2.32-1.4-1.4-8.24 8.24-0.86 0.84-8.56 8.56 1.4 1.4 2.64-2.64c0.32 0.1 0.65 0.2 1 0.28s0.71 0.15 1.080 0.21c0.37 0.060 0.76 0.1 1.16 0.13 0.43 0.040 0.85 0.060 1.28 0.060 2.44 0 4.41-0.5 5.99-1.25s2.77-1.75 3.65-2.75c0.88-1 1.46-2 1.82-2.75 0.35-0.75 0.49-1.25 0.49-1.25s-0.050-0.19-0.18-0.51c-0.12-0.32-0.32-0.77-0.61-1.29s-0.67-1.12-1.16-1.74-1.090-1.23-1.82-1.82zM14.3 12.53c-0.050 0.22-0.13 0.43-0.24 0.62s-0.24 0.37-0.39 0.52c-0.15 0.15-0.33 0.29-0.52 0.39s-0.4 0.19-0.62 0.24l1.77-1.77zM20.14 14.68c-0.49 0.55-1.020 1.030-1.61 1.45-0.58 0.41-1.22 0.76-1.9 1.040s-1.41 0.49-2.18 0.63-1.59 0.2-2.45 0.2c-0.27 0-0.52-0.010-0.78-0.020s-0.5-0.030-0.73-0.060-0.47-0.060-0.7-0.1c-0.23-0.040-0.45-0.080-0.66-0.13l1.56-1.56c0.1 0.030 0.21 0.060 0.32 0.090s0.21 0.050 0.32 0.070c0.11 0.020 0.22 0.040 0.33 0.050s0.23 0.020 0.34 0.020c0.6 0 1.18-0.12 1.7-0.34s0.99-0.54 1.39-0.94 0.71-0.87 0.94-1.39c0.22-0.52 0.34-1.1 0.34-1.7 0-0.12-0.010-0.23-0.020-0.34s-0.030-0.22-0.050-0.33-0.040-0.22-0.070-0.32-0.060-0.21-0.090-0.32l2.6-2.6c0.46 0.34 0.86 0.71 1.2 1.070 0.35 0.37 0.64 0.73 0.89 1.090 0.25 0.35 0.45 0.69 0.61 0.99s0.28 0.57 0.37 0.78c-0.060 0.15-0.14 0.33-0.24 0.52-0.1 0.2-0.21 0.42-0.35 0.65s-0.3 0.48-0.48 0.73c-0.16 0.24-0.37 0.51-0.6 0.77z"></path>
<path fill="#000" d="M7.64 12c0 0.12 0.010 0.23 0.020 0.34s0.030 0.22 0.050 0.33c0.020 0.11 0.040 0.22 0.070 0.32 0.030 0.11 0.060 0.21 0.090 0.32l1.84-1.84c0.050-0.22 0.13-0.43 0.24-0.62s0.24-0.37 0.39-0.52 0.33-0.29 0.52-0.39c0.19-0.11 0.4-0.19 0.62-0.24l1.84-1.84c-0.11-0.030-0.22-0.070-0.32-0.090-0.11-0.030-0.21-0.050-0.32-0.070s-0.22-0.040-0.33-0.050c-0.12-0.010-0.23-0.010-0.35-0.010-0.6 0-1.18 0.12-1.7 0.34s-0.99 0.54-1.39 0.93-0.71 0.87-0.93 1.39c-0.22 0.52-0.34 1.1-0.34 1.7z"></path>
</svg>
