<?xml version="1.0" encoding="utf-8"?>
<!-- Generated by IcoMoon.io -->
<!DOCTYPE svg PUBLIC "-//W3C//DTD SVG 1.1//EN" "http://www.w3.org/Graphics/SVG/1.1/DTD/svg11.dtd">
<svg version="1.1" xmlns="http://www.w3.org/2000/svg" xmlns:xlink="http://www.w3.org/1999/xlink" width="24" height="24" viewBox="0 0 24 24">
<path fill="#000" d="M9.54 12.080l-5.71 8.13 8.13-5.72-2.42-2.41z"></path>
<path fill="#000" d="M16.85 4.82l2.33 2.33-0.41 0.2-0.29 0.42-3.050 4.31-0.49 0.7 0.16 0.84 0.38 1.99-0.29 0.29-7.080-7.080 0.29-0.29 2.83 0.54 0.7-0.49 4.31-3.050 0.42-0.29 0.19-0.42zM16.28 1.43l-1.21 2.47-4.31 3.050-3.030-0.58-2.45 2.45 9.9 9.9 2.45-2.45-0.58-3.030 3.050-4.31 2.47-1.21-6.29-6.29z"></path>
</svg>
