<?xml version="1.0" encoding="utf-8"?>
<!-- Generated by IcoMoon.io -->
<!DOCTYPE svg PUBLIC "-//W3C//DTD SVG 1.1//EN" "http://www.w3.org/Graphics/SVG/1.1/DTD/svg11.dtd">
<svg version="1.1" xmlns="http://www.w3.org/2000/svg" xmlns:xlink="http://www.w3.org/1999/xlink" width="24" height="24" viewBox="0 0 24 24">
<path fill="#000" d="M0 2v20h24v-20h-24zM9 10h6v4h-6v-4zM7 14h-5v-4h5v4zM9 8v-4h6v4h-6zM7 4v4h-5v-4h5zM2 20v-4h5v4h-5zM9 20v-4h6v4h-6zM22 20h-5v-4h5v4zM22 14h-5v-4h5v4zM17 8v-4h5v4h-5z"></path>
</svg>
