<?xml version="1.0" encoding="utf-8"?>
<!-- Generated by IcoMoon.io -->
<!DOCTYPE svg PUBLIC "-//W3C//DTD SVG 1.1//EN" "http://www.w3.org/Graphics/SVG/1.1/DTD/svg11.dtd">
<svg version="1.1" xmlns="http://www.w3.org/2000/svg" xmlns:xlink="http://www.w3.org/1999/xlink" width="24" height="24" viewBox="0 0 24 24">
<path fill="#000" d="M12 6c1.694 0 3.115 0.277 4.304 0.717s2.146 1.043 2.911 1.695c0.765 0.652 1.339 1.353 1.761 1.988s0.693 1.205 0.853 1.596c-0.062 0.15-0.141 0.327-0.238 0.524-0.098 0.198-0.214 0.416-0.352 0.648s-0.296 0.479-0.479 0.732-0.388 0.515-0.619 0.776c-0.487 0.551-1.023 1.035-1.607 1.45-0.585 0.415-1.217 0.761-1.898 1.039-0.68 0.278-1.407 0.486-2.181 0.626s-1.591 0.209-2.455 0.209c-1.694 0-3.115-0.277-4.304-0.717s-2.146-1.043-2.911-1.695c-0.765-0.652-1.339-1.353-1.761-1.988s-0.693-1.205-0.853-1.596c0.062-0.15 0.141-0.327 0.238-0.524 0.098-0.198 0.214-0.416 0.352-0.648 0.137-0.232 0.296-0.479 0.478-0.732s0.388-0.515 0.619-0.776c0.487-0.551 1.023-1.035 1.607-1.45 0.585-0.415 1.218-0.762 1.898-1.039s1.407-0.487 2.18-0.626 1.593-0.209 2.457-0.209zM12 4c-2.444 0-4.413 0.5-5.992 1.25s-2.767 1.75-3.65 2.75-1.46 2-1.816 2.75-0.492 1.25-0.492 1.25 0.136 0.5 0.492 1.25 0.934 1.75 1.816 2.75 2.071 2 3.649 2.75 3.549 1.25 5.993 1.25 4.413-0.5 5.992-1.25 2.767-1.75 3.65-2.75c0.883-1 1.46-2 1.816-2.75s0.492-1.25 0.492-1.25-0.136-0.5-0.492-1.25-0.934-1.75-1.816-2.75c-0.883-1-2.071-2-3.649-2.75s-3.549-1.25-5.993-1.25v0 0 0 0z"></path>
<path fill="#000" d="M12 9.635c0.326 0 0.637 0.066 0.92 0.186s0.538 0.293 0.752 0.507c0.214 0.214 0.388 0.469 0.507 0.752s0.186 0.594 0.186 0.92-0.066 0.637-0.186 0.92-0.293 0.538-0.507 0.752c-0.214 0.214-0.469 0.388-0.752 0.507s-0.594 0.186-0.92 0.186-0.637-0.066-0.92-0.186-0.538-0.293-0.752-0.507c-0.214-0.214-0.388-0.469-0.507-0.752s-0.186-0.594-0.186-0.92 0.066-0.637 0.186-0.92 0.293-0.538 0.507-0.752c0.214-0.214 0.469-0.388 0.752-0.507s0.594-0.186 0.92-0.186zM12 7.635c-0.603 0-1.177 0.122-1.699 0.343s-0.993 0.54-1.388 0.935c-0.395 0.395-0.715 0.865-0.936 1.388s-0.342 1.096-0.342 1.699 0.122 1.177 0.343 1.699 0.541 0.993 0.936 1.388c0.395 0.395 0.865 0.715 1.388 0.936s1.096 0.343 1.699 0.343 1.177-0.122 1.699-0.343c0.522-0.221 0.993-0.541 1.388-0.936s0.715-0.865 0.936-1.388c0.221-0.522 0.343-1.096 0.343-1.699s-0.122-1.177-0.343-1.699c-0.221-0.522-0.541-0.993-0.936-1.388s-0.865-0.715-1.388-0.936-1.097-0.342-1.7-0.342v0 0 0 0z"></path>
</svg>
